# xmcd
#
# Track frame offsets:
#	150
#	14219
#	30419
#	45566
#	61522
#	77486
#	89113
#	105779
#	119030
#	139024
#	148877
#	166739
#	180221
#	202602
#	218324
#	238024
#	254333
#	271426
#	291531
#	308768
#
# Disc length: 4455 seconds
#
# Revision: 2
# Processed by: cddbd v1.5.2PL0 Copyright (c) Steve Scherf et al.
# Submitted via: EZCDAudioConverter 8.0.2.1
#
DISCID=0f116514
DTITLE=Сборник - НОВОГОДНИЙ КАПРИЗ
DYEAR=1900
DGENRE=Other
TTITLE0=Я не понимаю (Леонид Агутин)
TTITLE1=Я устала страдать (Лариса Черникова)
TTITLE2=Подождем (Игорек)
TTITLE3=Ты не моя (Никита)
TTITLE4=Ветра поток (А-мега)
TTITLE5=Ты не гони (Total)
TTITLE6=Ibiza (Lika Star)
TTITLE7=Мачо засранец (2ва самолета)
TTITLE8=Это сильнее меня (Гости из будущего)
TTITLE9=Данила блюз (Кирпичи)
TTITLE10=Птица белокрылая (Александр Грин)
TTITLE11=Не вернусь (Татьяна Овсиенко)
TTITLE12=Мой сон (Татьяна Буланова)
TTITLE13=Я сошла с ума (Тату)
TTITLE14=чили-ча-ча (Филипп Киркоров)
TTITLE15=Тропикана (Валерий Меладзе)
TTITLE16=Не верь (Вирус)
TTITLE17=Звезда по имени солнце (Вячеслав Бутусов)
TTITLE18=Любовь втроем (Revolvers)
TTITLE19=Новогодний jingle (Ножик чупс)
EXTD=
EXTT0=
EXTT1=
EXTT2=
EXTT3=
EXTT4=
EXTT5=
EXTT6=
EXTT7=
EXTT8=
EXTT9=
EXTT10=
EXTT11=
EXTT12=
EXTT13=
EXTT14=
EXTT15=
EXTT16=
EXTT17=
EXTT18=
EXTT19=
PLAYORDER=
